<svg xmlns="http://www.w3.org/2000/svg" width="15" height="15" viewBox="0 0 15 15">
    <path fill="#000" fill-rule="evenodd" d="M7.4.8c1.901 0 2.14.008 2.886.042.745.034 1.254.152 1.7.326.46.178.85.418 1.24.807.388.389.628.78.807 1.24.173.445.29.954.325 1.699.034.747.042.985.042 2.886 0 1.901-.008 2.14-.042 2.886-.034.745-.152 1.254-.325 1.7-.18.46-.419.85-.808 1.24-.389.388-.78.628-1.24.807-.445.173-.954.29-1.699.325-.747.034-.985.042-2.886.042-1.901 0-2.14-.008-2.886-.042-.745-.034-1.254-.152-1.7-.325a3.432 3.432 0 0 1-1.24-.808c-.388-.389-.628-.78-.806-1.24-.174-.445-.292-.954-.326-1.699C.408 9.94.4 9.701.4 7.8c0-1.901.008-2.14.042-2.886.034-.745.152-1.254.326-1.7.178-.46.418-.85.807-1.24.389-.388.78-.628 1.24-.806.445-.174.954-.292 1.699-.326C5.26.808 5.499.8 7.4.8zm0 .63c-2.074 0-2.32.009-3.14.046-.757.034-1.168.161-1.442.267-.363.141-.622.31-.893.582-.272.271-.44.53-.582.893-.106.274-.233.685-.267 1.443-.037.819-.045 1.065-.045 3.139s.008 2.32.045 3.14c.034.757.161 1.168.267 1.442.141.363.31.622.582.893.271.272.53.44.893.582.274.106.685.233 1.443.267.819.037 1.064.045 3.139.045 2.075 0 2.32-.008 3.14-.045.757-.034 1.168-.161 1.442-.267.363-.141.622-.31.893-.582.272-.271.44-.53.582-.893.106-.274.233-.685.267-1.443.037-.819.045-1.065.045-3.139s-.008-2.32-.045-3.14c-.034-.757-.161-1.168-.267-1.442a2.407 2.407 0 0 0-.582-.893 2.407 2.407 0 0 0-.893-.582c-.274-.106-.685-.233-1.443-.267C9.72 1.439 9.474 1.43 7.4 1.43zm0 2.775a3.595 3.595 0 1 1 0 7.19 3.595 3.595 0 0 1 0-7.19zm0 6.678a3.083 3.083 0 1 0 0-6.166 3.083 3.083 0 0 0 0 6.166zm4.512-6.82a.776.776 0 1 1-1.551 0 .776.776 0 0 1 1.551 0z"/>
</svg>
