<svg xmlns="http://www.w3.org/2000/svg" xmlns:xlink="http://www.w3.org/1999/xlink" width="21" height="21" viewBox="0 0 21 21">
    <defs>
        <path id="a" d="M.012.015V1.99l2.97.01.003-1.985z"/>
    </defs>
    <g fill="none" fill-rule="evenodd">
        <path fill="#111" d="M12.218 5.28l-3.485-.008V3.534h3.49l-.005 1.747zm6.994-1.702v-.48a2.623 2.623 0 0 0-2.62-2.62H15.38a1.302 1.302 0 0 0-.97-.437H6.55c-.385 0-.729.17-.969.437H4.366a2.623 2.623 0 0 0-2.62 2.62v.48A2.187 2.187 0 0 0 0 5.718v1.746c0 .241.195.437.437.437h5.24a.436.436 0 0 0 .436-.437V5.717a2.187 2.187 0 0 0-1.747-2.139v-.48H5.58c.24.265.584.436.97.436h1.31v1.738c0 .486.395.882.881.882h1.302v.935a1.745 1.745 0 0 0-1.31 1.685H6.55a3.06 3.06 0 0 0-3.057 3.056v6.55h-.436c-.723 0-1.31.588-1.31 1.31 0 .722.587 1.31 1.31 1.31h14.846c.722 0 1.31-.588 1.31-1.31 0-.722-.588-1.31-1.31-1.31h-.437v-6.55a3.06 3.06 0 0 0-3.057-3.056h-2.183c0-.812-.559-1.49-1.31-1.685v-.935h1.302a.883.883 0 0 0 .881-.882V3.534h1.31c.386 0 .73-.17.97-.437h1.214v.481a2.187 2.187 0 0 0-1.747 2.14v1.746c0 .241.195.437.437.437h5.24a.436.436 0 0 0 .436-.437V5.717a2.187 2.187 0 0 0-1.747-2.139z"/>
        <path fill="#FFF" d="M11.353 8.774H9.606a.874.874 0 0 1 1.747 0M18.34 19.69c0 .24-.197.437-.437.437H3.057a.437.437 0 0 1 0-.874h14.846c.24 0 .436.196.436.437M14.41 9.647c1.204 0 2.183.98 2.183 2.183v6.55H4.366v-6.55c0-1.203.98-2.183 2.184-2.183h7.86zM5.24 5.717v1.31H.873v-1.31c0-.722.588-1.31 1.31-1.31H3.93c.722 0 1.31.588 1.31 1.31M4.366 2.224a.874.874 0 0 0-.873.873v.437H2.62v-.437c0-.963.784-1.746 1.746-1.746h.874v.873h-.874z"/>
        <path fill="#E4AA17" d="M14.846 2.224c0 .241-.196.437-.437.437H13.1v-.437a.436.436 0 1 0-.873 0l-.001.437H8.733v-.437a.436.436 0 1 0-.873 0v.437H6.55a.437.437 0 0 1-.437-.437v-.873c0-.241.196-.437.437-.437h7.86c.24 0 .436.196.436.437v.873z"/>
        <path fill="#FFF" d="M14.846 2.224c0 .241-.196.437-.437.437H13.1v-.437a.436.436 0 1 0-.873 0l-.001.437H8.733v-.437a.436.436 0 1 0-.873 0v.437H6.55a.437.437 0 0 1-.437-.437v-.873c0-.241.196-.437.437-.437h7.86c.24 0 .436.196.436.437v.873zM15.72 2.224v-.873h.873c.962 0 1.746.783 1.746 1.746v.437h-.873v-.437a.874.874 0 0 0-.873-.873h-.874zM20.086 7.027h-4.367v-1.31c0-.722.588-1.31 1.31-1.31h1.747c.722 0 1.31.588 1.31 1.31v1.31z"/>
        <path fill="#111" d="M10.48 10.52a3.493 3.493 0 1 1 0 6.987 3.493 3.493 0 0 1 0-6.987"/>
        <path fill="#FFF" d="M10.162 11.413a2.62 2.62 0 1 1 .635 5.201 2.62 2.62 0 0 1-.635-5.201"/>
        <g transform="translate(9 3)">
            <mask id="b" fill="#fff">
                <use xlink:href="#a"/>
            </mask>
            <path d="M.012.015V1.99l2.97.01.003-1.985z" mask="url(#b)"/>
        </g>
    </g>
</svg>
