<svg xmlns="http://www.w3.org/2000/svg" width="16" height="22" viewBox="0 0 16 22">
    <g fill="none" fill-rule="nonzero">
        <path fill="#918F8F" d="M15.91 20.475l-2.799-5.918a.524.524 0 0 0-.268-.258l-1.392-.62 2.412-4.042a6.53 6.53 0 0 0 .739-3.035c0-1.78-.699-3.45-1.966-4.7A6.555 6.555 0 0 0 7.906 0C6.177.025 4.547.72 3.32 1.958a6.56 6.56 0 0 0-1.92 4.604 6.62 6.62 0 0 0 .738 3.075L4.55 13.68l-1.4.623a.523.523 0 0 0-.26.255L.09 20.475a.523.523 0 0 0 .686.702l3.505-1.56 3.505 1.56c.136.06.29.06.426 0l3.505-1.56 3.505 1.56a.523.523 0 0 0 .686-.702zM3.045 9.115a5.492 5.492 0 0 1-.6-2.547c.017-3.002 2.474-5.479 5.475-5.52a5.52 5.52 0 0 1 3.98 1.599 5.514 5.514 0 0 1 1.653 3.955c0 .885-.201 1.73-.6 2.513l-4.504 7.55a.515.515 0 0 1-.45.256.515.515 0 0 1-.45-.256l-4.504-7.55zm8.885 9.45a.524.524 0 0 0-.426 0L8 20.125l-3.505-1.56a.524.524 0 0 0-.426 0l-2.428 1.081 2.111-4.466 1.337-.595 1.562 2.617c.286.48.79.766 1.349.766.558 0 1.063-.286 1.349-.766l1.561-2.617 1.338.595 2.11 4.467-2.427-1.082z"/>
        <path fill="#908E8E" d="M8 4.212a2.393 2.393 0 0 0-2.39 2.39A2.393 2.393 0 0 0 8 8.992a2.393 2.393 0 0 0 2.39-2.39A2.393 2.393 0 0 0 8 4.212zm0 3.732c-.74 0-1.343-.602-1.343-1.342 0-.74.603-1.343 1.343-1.343s1.343.602 1.343 1.343c0 .74-.602 1.342-1.343 1.342z"/>
    </g>
</svg>
