<svg xmlns="http://www.w3.org/2000/svg" width="16" height="20" viewBox="0 0 16 20">
    <g fill="#000" fill-rule="nonzero">
        <path d="M14.957 18h-1.74v-2c0-2.53-1.442-4.813-3.726-6 2.284-1.187 3.726-3.47 3.726-6V2h1.74C15.532 2 16 1.551 16 1c0-.551-.468-1-1.043-1H1.043C.468 0 0 .449 0 1c0 .551.468 1 1.043 1h1.74v2c0 2.53 1.442 4.813 3.726 6-2.284 1.187-3.726 3.47-3.726 6v2h-1.74C.468 18 0 18.449 0 19c0 .551.468 1 1.043 1h13.914c.575 0 1.043-.449 1.043-1 0-.551-.468-1-1.043-1zM1.043 1.333A.341.341 0 0 1 .696 1c0-.184.156-.333.347-.333h13.914c.191 0 .347.149.347.333a.341.341 0 0 1-.347.333H1.043zM3.478 4V2h9.044v2c0 2.476-1.528 4.693-3.897 5.667h-1.25C5.005 8.693 3.478 6.476 3.478 4zm0 12c0-2.476 1.528-4.693 3.897-5.667h1.25c2.37.974 3.897 3.191 3.897 5.667v2a.34.34 0 0 0-.348-.333.34.34 0 0 0-.348.333h-.696a.34.34 0 0 0-.347-.333.34.34 0 0 0-.348.333h-.696a.34.34 0 0 0-.348-.333.34.34 0 0 0-.348.333h-.695A.34.34 0 0 0 8 17.667a.34.34 0 0 0-.348.333h-.695a.34.34 0 0 0-.348-.333.34.34 0 0 0-.348.333h-.696a.34.34 0 0 0-.348-.333.34.34 0 0 0-.347.333h-.696a.34.34 0 0 0-.348-.333.34.34 0 0 0-.348.333v-2zm11.479 3.333H1.043A.341.341 0 0 1 .696 19c0-.184.156-.333.347-.333h13.914c.191 0 .347.149.347.333a.341.341 0 0 1-.347.333z"/>
        <ellipse cx="4.522" cy="17.333" rx="1" ry="1"/>
        <ellipse cx="5.913" cy="17.333" rx="1" ry="1"/>
        <ellipse cx="7.304" cy="17.333" rx="1" ry="1"/>
        <ellipse cx="8.696" cy="17.333" rx="1" ry="1"/>
        <ellipse cx="10.087" cy="17.333" rx="1" ry="1"/>
        <ellipse cx="11.478" cy="17.333" rx="1" ry="1"/>
        <ellipse cx="5.217" cy="16.667" rx="1" ry="1"/>
        <ellipse cx="6.609" cy="16.667" rx="1" ry="1"/>
        <ellipse cx="8" cy="11" rx="1" ry="1"/>
        <ellipse cx="5.913" cy="7.333" rx="1" ry="1"/>
        <ellipse cx="7.304" cy="7.333" rx="1" ry="1"/>
        <ellipse cx="8.696" cy="7.333" rx="1" ry="1"/>
        <ellipse cx="10.087" cy="7.333" rx="1" ry="1"/>
        <ellipse cx="9.391" cy="6.667" rx="1" ry="1"/>
        <ellipse cx="10.087" cy="6" rx="1" ry="1"/>
        <ellipse cx="6.609" cy="6.667" rx="1" ry="1"/>
        <ellipse cx="8" cy="6.667" rx="1" ry="1"/>
        <ellipse cx="5.913" cy="6" rx="1" ry="1"/>
        <ellipse cx="6.609" cy="8" rx="1" ry="1"/>
        <ellipse cx="7.304" cy="8.667" rx="1" ry="1"/>
        <ellipse cx="8.696" cy="8.667" rx="1" ry="1"/>
        <ellipse cx="8" cy="8" rx="1" ry="1"/>
        <ellipse cx="9.391" cy="8" rx="1" ry="1"/>
        <ellipse cx="8" cy="12" rx="1" ry="1"/>
        <ellipse cx="8" cy="13" rx="1" ry="1"/>
        <ellipse cx="8" cy="14" rx="1" ry="1"/>
        <ellipse cx="8" cy="15" rx="1" ry="1"/>
        <ellipse cx="8" cy="16" rx="1" ry="1"/>
        <ellipse cx="9.391" cy="16.667" rx="1" ry="1"/>
        <ellipse cx="10.783" cy="16.667" rx="1" ry="1"/>
    </g>
</svg>
